<svg xmlns="http://www.w3.org/2000/svg" width="525" height="300" viewBox="0 0 525 300"><rect width="100%" height="100%" fill="#DDDDDD"/><path fill="#999999" d="M143.005 120.185v7.29h-14.39v40.43h-8.87v-40.43h-14.39v-7.29h37.65Zm15.15 23.99h6.63q2.44 0 4.26-.61 1.81-.61 3.02-1.75 1.2-1.14 1.8-2.77.59-1.63.59-3.65 0-1.91-.59-3.46-.6-1.55-1.78-2.64-1.19-1.09-3.01-1.67-1.81-.57-4.29-.57h-6.63v17.12Zm-8.88-23.99h15.51q4.79 0 8.29 1.12 3.49 1.13 5.77 3.14 2.28 2.01 3.38 4.82 1.11 2.8 1.11 6.13 0 3.47-1.16 6.36-1.15 2.88-3.46 4.96t-5.79 3.24q-3.48 1.15-8.14 1.15h-6.63v16.8h-8.88v-47.72Zm49.73 22.71h5.55q2.51 0 4.37-.63 1.86-.63 3.07-1.73 1.2-1.11 1.8-2.63.59-1.52.59-3.33 0-3.63-2.39-5.58-2.39-1.94-7.31-1.94h-5.68v15.84Zm16.44 7.39 11.94 17.62h-8.02q-2.27 0-3.3-1.78l-10.03-15.28q-.56-.86-1.24-1.22-.67-.36-1.99-.36h-3.8v18.64h-8.87v-47.72h14.55q4.85 0 8.33 1.01 3.48 1 5.71 2.82 2.23 1.81 3.28 4.34 1.06 2.52 1.06 5.56 0 2.41-.71 4.55-.71 2.15-2.04 3.9-1.34 1.75-3.3 3.07-1.97 1.32-4.48 2.08.86.49 1.59 1.17.72.67 1.32 1.6Zm42.07-30.1v47.72h-8.91v-47.72h8.91Zm17.53 47.72h-8.16v-33.86h4.99q1.58 0 2.08 1.49l.52 2.5q.9-.99 1.87-1.81.97-.83 2.08-1.42 1.1-.59 2.37-.94t2.79-.35q3.2 0 5.27 1.74 2.06 1.73 3.08 4.6.79-1.68 1.98-2.89 1.19-1.2 2.61-1.96t3.02-1.12q1.6-.37 3.22-.37 2.8 0 4.98.86 2.18.86 3.66 2.51 1.49 1.65 2.26 4.03.78 2.37.78 5.44v21.55h-8.15v-21.55q0-3.23-1.42-4.87-1.42-1.63-4.16-1.63-1.25 0-2.33.43-1.07.43-1.88 1.24-.81.8-1.27 2.03-.46 1.22-.46 2.8v21.55h-8.18v-21.55q0-3.4-1.37-4.95-1.37-1.55-4.01-1.55-1.79 0-3.32.87-1.53.88-2.85 2.4v24.78Zm65.01-8.75v-5.7q-3.54.16-5.94.61-2.41.44-3.87 1.13-1.45.7-2.07 1.62-.63.93-.63 2.01 0 2.15 1.27 3.07 1.27.93 3.32.93 2.5 0 4.34-.91 1.83-.91 3.58-2.76Zm-17.23-17.78-1.45-2.61q5.84-5.34 14.06-5.34 2.97 0 5.31.97 2.34.97 3.96 2.7 1.62 1.74 2.46 4.15.84 2.4.84 5.28v21.38h-3.7q-1.15 0-1.78-.35-.63-.34-.99-1.4l-.73-2.44q-1.28 1.15-2.5 2.03-1.22.87-2.54 1.47-1.32.59-2.83.9-1.5.32-3.31.32-2.15 0-3.96-.58-1.82-.58-3.14-1.73-1.32-1.16-2.04-2.87-.73-1.72-.73-4 0-1.28.43-2.55.43-1.27 1.4-2.43.98-1.15 2.53-2.18 1.55-1.02 3.81-1.78t5.26-1.24q3-.47 6.87-.57v-1.98q0-3.4-1.46-5.04-1.45-1.63-4.19-1.63-1.98 0-3.28.46-1.3.46-2.29 1.04-.99.58-1.8 1.04-.81.46-1.8.46-.86 0-1.45-.44-.6-.45-.96-1.04Zm45.21 8.78q1.52 0 2.64-.42 1.12-.41 1.86-1.13.75-.73 1.13-1.75.38-1.03.38-2.25 0-2.51-1.51-3.97-1.5-1.47-4.5-1.47t-4.5 1.47q-1.51 1.46-1.51 3.97 0 1.19.38 2.21.38 1.03 1.13 1.77.74.74 1.88 1.15 1.13.42 2.62.42Zm9.21 19.27q0-.99-.6-1.62-.59-.63-1.61-.97-1.03-.35-2.4-.51-1.37-.17-2.9-.25-1.54-.08-3.17-.15-1.63-.07-3.18-.26-1.36.75-2.2 1.78-.84 1.02-.84 2.37 0 .9.45 1.67.44.78 1.42 1.34.97.56 2.52.87 1.55.32 3.79.32 2.28 0 3.93-.35 1.65-.35 2.72-.96 1.08-.61 1.57-1.45.5-.84.5-1.83Zm-1.62-34.22h9.73v3.03q0 1.46-1.74 1.78l-3.04.57q.69 1.74.69 3.82 0 2.51-1 4.54-1.01 2.03-2.79 3.45-1.78 1.42-4.21 2.19-2.43.78-5.23.78-.99 0-1.91-.1-.93-.1-1.82-.26-1.58.95-1.58 2.14 0 1.02.94 1.5t2.49.68q1.55.2 3.53.25 1.98.05 4.06.21 2.08.17 4.06.58 1.98.41 3.53 1.3 1.55.89 2.49 2.43.94 1.53.94 3.94 0 2.25-1.1 4.36-1.11 2.11-3.21 3.76-2.09 1.65-5.14 2.66-3.06 1-6.95 1-3.83 0-6.67-.74-2.83-.74-4.72-1.98-1.88-1.24-2.8-2.85-.92-1.62-.92-3.37 0-2.38 1.43-3.98 1.44-1.6 3.94-2.55-1.35-.7-2.14-1.85-.79-1.16-.79-3.04 0-.76.28-1.57.28-.8.82-1.6.55-.79 1.37-1.5.83-.71 1.95-1.27-2.57-1.38-4.04-3.69-1.47-2.31-1.47-5.42 0-2.5 1.01-4.53 1-2.03 2.8-3.47 1.8-1.43 4.26-2.19t5.36-.76q2.18 0 4.09.44 1.92.45 3.5 1.31Zm21.32 11.88h15.38q0-1.59-.45-2.99-.45-1.4-1.34-2.46-.89-1.05-2.26-1.66-1.37-.62-3.18-.62-3.53 0-5.56 2.02-2.03 2.01-2.59 5.71Zm20.79 4.91h-20.96q.2 2.61.93 4.51.72 1.9 1.91 3.13 1.19 1.24 2.82 1.85 1.64.61 3.62.61 1.98 0 3.41-.46 1.44-.46 2.51-1.02 1.07-.56 1.88-1.03.81-.46 1.57-.46 1.02 0 1.52.76l2.34 2.97q-1.35 1.58-3.04 2.66-1.68 1.07-3.51 1.71-1.83.65-3.73.91t-3.68.26q-3.53 0-6.57-1.17-3.03-1.17-5.28-3.46-2.24-2.3-3.53-5.68-1.29-3.38-1.29-7.84 0-3.46 1.13-6.51 1.12-3.06 3.21-5.32 2.1-2.26 5.12-3.58 3.02-1.32 6.81-1.32 3.2 0 5.91 1.03 2.71 1.02 4.65 2.98 1.95 1.97 3.06 4.82 1.1 2.86 1.1 6.52 0 1.85-.39 2.49-.4.64-1.52.64Z"/></svg>